inDegrees=no
nColumns=32
nRows=15
DataType=double
version=3
OpenSimVersion=4.5
endheader
time	pelvis_tilt	pelvis_list	pelvis_rotation	pelvis_tz	pelvis_ty	pelvis_tx	hip_flexion_r	hip_adduction_r	hip_rotation_r	knee_angle_r	ankle_angle_r	subtalar_angle_r	mtp_angle_r	hip_flexion_l	hip_adduction_l	hip_rotation_l	knee_angle_l	ankle_angle_l	subtalar_angle_l	mtp_angle_l	lumbar_extension	lumbar_bending	lumbar_rotation	arm_flex_r	arm_add_r	arm_rot_r	elbow_flex_r	arm_flex_l	arm_add_l	arm_rot_l	elbow_flex_l
0	-0.02164982092744953	-0.05137553113949588	-0.0257382337138201	0	0.86000341	-0	-0.2421048804621413	0.1106506469390548	-0.2327799951993793	-0.1104180004838834	0.3339903630359132	0.09913552775214581	0	0.4403139060921524	-0.07529709232797747	-0.3243937965056602	-0.1002182348996389	0.008200234362684985	0.08359842331678791	0	-0.156849448360294	0.02901795287767012	0.1537736329774217	0.2522913581566587	-0.1956781296158136	0.1783832901281382	1.141661368880834	-0.2236194588656314	-0.2134849331652277	-0.05935953483665302	0.7669725622629189
0.009999999999999787	-0.02375301084647149	-0.05304242462483892	-0.03136982911897697	-0.001085900000000001	0.85878783	0.01004441	-0.2485213658145408	0.1081427520954705	-0.2221039941885137	-0.1176975165938748	0.3301952365563031	0.09284411042501627	0	0.4418256846338899	-0.07930815181530894	-0.3111357192710786	-0.1218301244755066	-0.01030401078434057	0.02959519836208575	0	-0.1543686624942505	0.02915695892781351	0.1579495430013942	0.2431647695240596	-0.1948587067822473	0.179622868690531	1.133395083754338	-0.220766967087198	-0.2104989706483736	-0.06016385620886643	0.7596917361087908
0.02000000000000002	-0.02515014924042452	-0.05015004905103394	-0.03828144895052718	-0.002137790000000001	0.85805273	0.02050737	-0.2527351885786568	0.0992634389187672	-0.2182999502981564	-0.13087248683453	0.3264478689172786	0.09672165868228838	0	0.4427667186936096	-0.0793371192194372	-0.3268585747354031	-0.1384537270880258	-0.05737528152923372	-0.01458276747607952	0	-0.1521897829840853	0.0241326516848294	0.1618986846645832	0.2316289050045956	-0.1938970682380432	0.1822260752664349	1.123236619641512	-0.2206721606276968	-0.2092107637223617	-0.06144686659156338	0.7568305337411266
0.0299999999999998	-0.02583608649101768	-0.04238339048920604	-0.0420749434076183	-0.003473509999999985	0.85771231	0.0308557	-0.2584148676538964	0.08639779512677223	-0.2149379311121531	-0.1413359840605886	0.3224474046257044	0.09505113563829794	0	0.4402974413541208	-0.07300343560287798	-0.3301585033096681	-0.1473410635433006	-0.08613479320711845	-0.04546001716243823	0	-0.1509750614008994	0.01344140627014517	0.1625310956433312	0.2202457896068711	-0.1923324215788677	0.1835434358232063	1.109212209871216	-0.217952122409796	-0.2086215166558777	-0.06249476209992785	0.752739701013273
0.04000000000000004	-0.02602029571155533	-0.03651006409832224	-0.04091795416349715	-0.005044749999999987	0.85762063	0.04069541	-0.262013645116256	0.07669548154060186	-0.2102295185154032	-0.1559923335707346	0.3157863274356671	0.09491542197725551	0	0.4408144541297868	-0.06843583756644239	-0.3185081303559745	-0.1630231091954562	-0.09790262821573456	-0.04742193496782099	0	-0.1529727638664687	0.004542155150198768	0.1594154242707262	0.2092771635520234	-0.1922491644866257	0.1841298207242499	1.10029333426916	-0.2127845149085769	-0.2101712616938996	-0.06341881131349883	0.7532834105197103
0.04999999999999982	-0.02778960974274913	-0.02509149854001444	-0.03856872926801028	-0.007149409999999995	0.85785093	0.05094008	-0.2616807836007643	0.06051404814569868	-0.2107549938690133	-0.1745846981227653	0.3047681958147183	0.08751728526278398	0	0.4400719036249928	-0.05542710417745315	-0.3032099241451687	-0.176149722296658	-0.1193862477852867	-0.0664164544463719	0	-0.1513342658689232	-0.008920826182027854	0.1511104500816352	0.2000427556340861	-0.1839649563995077	0.1791147766417378	1.072335366097452	-0.2093622151918023	-0.210231399631271	-0.06453862416088928	0.745753028287953
0.06000000000000005	-0.02543694289065036	-0.01512289931854094	-0.03478610029641922	-0.00919935999999999	0.85854719	0.06118033	-0.264929997968421	0.04629723100973475	-0.2057137859047504	-0.1946188789953356	0.2923015405729145	0.08685873413876298	0	0.4422488154509593	-0.0457103595108956	-0.2950110706869878	-0.2065806527215054	-0.1166040962663672	-0.07203258590901354	0	-0.1558400438196543	-0.02145248708448677	0.1451921918280307	0.1872190892795295	-0.1838927287409408	0.1794714931429128	1.060389802291243	-0.203038471574399	-0.2124745976659649	-0.06552108849732696	0.7462994331063543
0.06999999999999984	-0.02268154556680607	-0.00489528533266049	-0.02676474550580289	-0.01189069000000001	0.85929042	0.07194107000000001	-0.2691807583572275	0.03241762911308157	-0.2031497960044741	-0.2151958878085381	0.2765047304467282	0.07859132920901866	0	0.443233109241519	-0.03167359944174659	-0.281063948982892	-0.2374693669521216	-0.09696004517630374	-0.1006004506611855	0	-0.1579720458805061	-0.0323876574465017	0.1308901469485663	0.1798998990431135	-0.1749735805184558	0.1723942566789703	1.022106210399467	-0.1984005355473776	-0.2134189492475267	-0.06599810600598585	0.7392629031310888
0.08000000000000007	-0.0189743653708559	0.005793124116778882	-0.02135702697018152	-0.01466748000000001	0.86026412	0.08274928000000001	-0.2683841677464029	0.0156819339510835	-0.2013380796637217	-0.2468031076664424	0.2553714190529365	0.0751472776283094	0	0.4421632101927416	-0.01807905484143878	-0.2750307330473086	-0.2678569482852713	-0.08025585041477735	-0.1110002110809551	0	-0.1628796385930862	-0.04399577353554345	0.1209184290514471	0.165633166712273	-0.1752782212816732	0.1709240183696936	1.005505039631159	-0.193583851974079	-0.2147765864183805	-0.06639521239311172	0.7394251477166237
0.08999999999999986	-0.01474928647081263	0.0148867586186564	-0.01614377637497872	-0.01767895	0.86136167	0.09375491000000001	-0.2661037545796675	-2.368010369228347e-05	-0.1970826109001921	-0.2824725092762653	0.2325491680754202	0.07287385991574895	0	0.437227219926034	-0.004088021351494471	-0.2619134459384319	-0.2929695559193374	-0.05969356013768988	-0.1191071242593323	0	-0.1665821346897064	-0.05319107979505082	0.1113781879613474	0.1527352153050273	-0.1739231336877908	0.1663001674988017	0.9800523004871351	-0.190095966274673	-0.2145479121580537	-0.06581884812543543	0.7381090284380164
0.1000000000000001	-0.01138740757094968	0.02208760716159612	-0.01078557245269806	-0.02108113	0.86256788	0.10443919	-0.2586755503800401	-0.0145331795304377	-0.192815453492129	-0.3232988219624536	0.2060810263922491	0.07105798026659881	0	0.4312158579561466	0.009389152474610595	-0.2504783455598708	-0.3122503162019995	-0.04369314932574383	-0.126830787568581	0	-0.1707521338071012	-0.05877934986871118	0.1012789231478217	0.1400414995343232	-0.1748018434361851	0.1616464166943621	0.9543911678086925	-0.1837339191379067	-0.214327954944676	-0.06478260426062434	0.7376789473707996
0.1099999999999999	-0.01587722737864032	0.02934877044177765	-0.008376468110272314	-0.02400730000000001	0.86336108	0.11502706	-0.2376837649427659	-0.02980627219863663	-0.185147059698836	-0.3715692216935282	0.177445752486509	0.06511075076914173	0	0.4274305793223079	0.02283731334349391	-0.2397552758116057	-0.3198807717733418	-0.03249913982887406	-0.1452745170889851	0	-0.1634307999572978	-0.06521382153718411	0.09374722319247911	0.1338715740528262	-0.1675526211805535	0.1485573412620475	0.9016385178633354	-0.1787845373089144	-0.2153855975933141	-0.06132692512190538	0.731176888699708
0.1200000000000001	-0.01670210998924414	0.03406295763854688	-0.007635731247513347	-0.02703008000000001	0.86460725	0.12506386	-0.2138722777513142	-0.04398184022305893	-0.1796357631830447	-0.4281482819236071	0.1404533352786054	0.05736448719140891	0	0.4158814574563787	0.03368473762643068	-0.2350824525726991	-0.3197810333624403	-0.0204353156541427	-0.1524231809780326	0	-0.1632889594924492	-0.06789320335735723	0.08992494043690552	0.120057437885619	-0.1703140360935642	0.1400195675524097	0.8741906952948175	-0.1718089739533492	-0.2133553422937342	-0.05946471082083914	0.7314455205279299
0.1299999999999999	-0.02591538436914932	0.03873274319748188	-0.0139840016170469	-0.02877242999999999	0.86528563	0.13418699	-0.1722689900352315	-0.05691904635411002	-0.1592252046752757	-0.4943329199933998	0.09927607021562973	0.03931838503891241	0	0.4105877411900568	0.04095990821565049	-0.2364090769880742	-0.3129113662884435	-0.01716820188780921	-0.1607166244748874	0	-0.1540715165239071	-0.07269291046208749	0.09120287924186204	0.1126273757830029	-0.165361499232883	0.1243151473028423	0.8339422475103964	-0.1641669115934153	-0.2142525691128276	-0.05590591972430745	0.72894609245108
0.1400000000000001	-0.03463668322162369	0.04518781832395026	-0.01974044337064708	-0.03070202	0.86588131	0.14339344	-0.1279696817516177	-0.07238757226530101	-0.1464549874582652	-0.5629945160731206	0.05309122374895769	0.02764206689322339	0	0.4045481478213865	0.0502857876179544	-0.2374554008274472	-0.3062212838206332	-0.008610948558389869	-0.1674762590115215	0	-0.1448115199847404	-0.0791522548177306	0.09338295151003809	0.1002470909517608	-0.1650299941872861	0.1099838838663702	0.8029861108617097	-0.1559924754660028	-0.2159884002830325	-0.05224035444559359	0.7309626854878082
